<svg width="588" height="263" viewBox="0 0 588 263" fill="none" xmlns="http://www.w3.org/2000/svg">
<path d="M74.7 243.8C61.1 235.4 47.7 227.1 45 225.4C37.1 220.5 25.2 210 20.3 203.5C17.8 200.2 13.8 193.5 11.4 188.5C3.79999 172.8 3.69999 172.3 3.29999 97.5C2.79999 21.2 1.89999 27.8 13.3 24.1C19 22.2 48.9 14.5 62 11.5C65 10.8 74.6 8.4 83.3 6.1C92 3.8 101 2 103.3 2C108.9 2 193.8 23 199.3 25.7C205 28.6 205 28.3 205 96.1C205 154.7 204.9 158.7 203 168.2C199.4 185.5 193.3 197.7 182.6 208.8C176.7 215 165.2 224.2 159.4 227.4C157.8 228.3 153.6 230.9 150 233.1C146.4 235.4 135.3 242.1 125.4 248.1C110.6 257 106.5 259 103.3 259C100.1 259 95.5 256.6 74.7 243.8ZM117.8 236.3C125.7 231.4 135.8 225.2 140.3 222.5C174.4 201.6 183.8 191.1 189 167.4C190.8 159.1 191 154.4 191 98.4C191 51.4 190.7 38 189.8 37.2C189.1 36.7 181.1 34.4 172 32.2C143.6 25.2 114.7 18.2 108.7 16.9C102.3 15.5 100.9 15.8 78.5 21.5C51.8 28.4 40.3 31.3 32 33.1C27.3 34.2 22 35.5 20.2 36.1L16.9 37.2L17.3 101.8L17.6 166.5L20.1 173.5C21.5 177.4 23.8 182.9 25.3 185.8C28.9 192.7 40.5 204.8 49.3 210.8C56.8 215.9 102.2 244.8 103 244.9C103.2 245 109.9 241.1 117.8 236.3Z" fill="#FF6900"/>
<path d="M58.8 202.1C53.3 201 47.5 196.6 44.3 191.3C41.8 186.9 41.5 185.6 41.5 177C41.5 169.6 41.9 166.7 43.4 164C47.7 155.9 54 152 63.9 151.1L70.3 150.5L71.9 145.6L73.5 140.6L81.4 138C90.2 135.1 92 133.4 92 127.5C92 123.8 91.4 122.9 85.8 117.3C80.4 112 78.7 111 74 110.1C55.3 106.3 43.1 92.5 40.7 72.5C38.8 57.5 43.2 51 55.1 51C61 51 61 51 61 48C61 46.1 61.7 44.7 62.9 44C64.2 43.4 79 43 104.3 43C141.2 43 143.8 43.1 145.3 44.8C146.3 45.8 147 47.4 147 48.3C147 49.6 147.9 50 150.4 50C160.2 50 166.3 54.4 167.5 62.4C168.6 69.4 166.4 81.5 162.8 88C156.6 99.4 144.1 108.9 133 110.5C129.3 111.1 127.5 112.2 122.8 116.8C117.1 122.4 117 122.5 117 128.2C117 134.8 117.7 135.4 128.2 138.4C134.9 140.4 135.7 141.3 136.2 146.5L136.5 150.5L148.2 151C157.7 151.4 160.2 151.8 161.9 153.4C164.6 155.8 164.6 160.3 161.9 164.1C160.4 166.3 159.7 169.2 159.3 175.8C158.8 184.2 158.9 184.9 161.4 189.3C164.7 194.8 164.5 197.6 160.7 200.4C157.9 202.5 156.9 202.5 110.2 202.7C84 202.7 60.8 202.5 58.8 202.1ZM145.8 176.3L146.1 165H103C61.7 165 59.9 165.1 58.1 166.9C55.1 169.9 53.7 176.2 55 181C57 188.3 55.4 188.1 103 187.8L145.5 187.5L145.8 176.3ZM69.7 92.6C68.1 88.4 66.6 81.5 65.6 73.5L64.4 64.5H59H53.5L53.8 69.4C54.3 76.3 58.8 85.7 63.8 90.3C68.1 94.1 70.6 95.1 69.7 92.6ZM143.3 90.9C149.5 85.8 154 75.5 154 66.5C154 64.2 153.7 64 148.7 64H143.3L142.1 72.4C141.5 77 140.3 83.3 139.5 86.4C137.2 95.4 137.5 95.7 143.3 90.9Z" fill="#FF6900"/>
<path d="M275.008 116.056C272.32 116.056 269.568 115.832 266.752 115.384C264 115 261.344 114.424 258.784 113.656C256.288 112.888 254.048 111.928 252.064 110.776C250.656 110.008 249.664 109.016 249.088 107.8C248.512 106.52 248.288 105.24 248.416 103.96C248.608 102.68 249.088 101.56 249.856 100.6C250.688 99.576 251.712 98.936 252.928 98.68C254.208 98.36 255.616 98.584 257.152 99.352C259.776 100.824 262.624 101.912 265.696 102.616C268.832 103.32 271.936 103.672 275.008 103.672C279.68 103.672 283.008 102.968 284.992 101.56C286.976 100.088 287.968 98.264 287.968 96.088C287.968 94.232 287.264 92.76 285.856 91.672C284.448 90.584 281.984 89.656 278.464 88.888L267.616 86.584C261.472 85.304 256.896 83.128 253.888 80.056C250.944 76.92 249.472 72.824 249.472 67.768C249.472 64.568 250.144 61.656 251.488 59.032C252.832 56.408 254.72 54.136 257.152 52.216C259.584 50.296 262.464 48.824 265.792 47.8C269.184 46.776 272.896 46.264 276.928 46.264C280.512 46.264 284.032 46.712 287.488 47.608C290.944 48.44 293.984 49.688 296.608 51.352C297.888 52.12 298.752 53.112 299.2 54.328C299.712 55.48 299.872 56.664 299.68 57.88C299.552 59.032 299.072 60.056 298.24 60.952C297.472 61.848 296.48 62.424 295.264 62.68C294.048 62.936 292.576 62.648 290.848 61.816C288.736 60.728 286.496 59.928 284.128 59.416C281.76 58.904 279.328 58.648 276.832 58.648C274.144 58.648 271.84 59 269.92 59.704C268.064 60.408 266.624 61.4 265.6 62.68C264.64 63.96 264.16 65.432 264.16 67.096C264.16 68.952 264.832 70.456 266.176 71.608C267.52 72.76 269.856 73.688 273.184 74.392L284.032 76.696C290.304 78.04 294.976 80.216 298.048 83.224C301.12 86.168 302.656 90.072 302.656 94.936C302.656 98.136 302.016 101.048 300.736 103.672C299.456 106.232 297.6 108.44 295.168 110.296C292.736 112.152 289.824 113.592 286.432 114.616C283.04 115.576 279.232 116.056 275.008 116.056ZM336.428 116.056C332.012 116.056 328.3 115.32 325.292 113.848C322.348 112.376 320.14 110.232 318.668 107.416C317.26 104.6 316.556 101.048 316.556 96.76V78.712H312.524C310.732 78.712 309.324 78.232 308.3 77.272C307.34 76.312 306.86 75 306.86 73.336C306.86 71.544 307.34 70.2 308.3 69.304C309.324 68.344 310.732 67.864 312.524 67.864H316.556V60.568C316.556 58.136 317.196 56.312 318.476 55.096C319.756 53.816 321.548 53.176 323.852 53.176C326.22 53.176 328.012 53.816 329.228 55.096C330.444 56.312 331.052 58.136 331.052 60.568V67.864H340.172C341.964 67.864 343.34 68.344 344.3 69.304C345.26 70.2 345.74 71.544 345.74 73.336C345.74 75 345.26 76.312 344.3 77.272C343.34 78.232 341.964 78.712 340.172 78.712H331.052V96.184C331.052 98.872 331.66 100.888 332.876 102.232C334.156 103.576 336.172 104.248 338.924 104.248C339.884 104.248 340.78 104.152 341.612 103.96C342.444 103.768 343.212 103.64 343.916 103.576C344.812 103.512 345.548 103.8 346.124 104.44C346.7 105.016 346.988 106.328 346.988 108.376C346.988 109.912 346.732 111.256 346.22 112.408C345.708 113.56 344.812 114.392 343.532 114.904C342.7 115.224 341.548 115.48 340.076 115.672C338.668 115.928 337.452 116.056 336.428 116.056ZM372.36 116.056C368.392 116.056 365.096 115.32 362.472 113.848C359.848 112.376 357.896 110.168 356.616 107.224C355.4 104.216 354.792 100.504 354.792 96.088V74.392C354.792 71.96 355.4 70.136 356.616 68.92C357.896 67.704 359.688 67.096 361.992 67.096C364.296 67.096 366.088 67.704 367.368 68.92C368.648 70.136 369.288 71.96 369.288 74.392V96.472C369.288 99.288 369.864 101.4 371.016 102.808C372.168 104.152 373.992 104.824 376.488 104.824C379.24 104.824 381.48 103.864 383.208 101.944C385 99.96 385.896 97.368 385.896 94.168V74.392C385.896 71.96 386.504 70.136 387.72 68.92C389 67.704 390.792 67.096 393.096 67.096C395.464 67.096 397.256 67.704 398.472 68.92C399.752 70.136 400.392 71.96 400.392 74.392V108.472C400.392 113.4 398.056 115.864 393.384 115.864C391.08 115.864 389.32 115.224 388.104 113.944C386.888 112.664 386.28 110.84 386.28 108.472V102.04L387.72 105.784C386.312 109.048 384.296 111.576 381.672 113.368C379.048 115.16 375.944 116.056 372.36 116.056ZM432.825 116.056C428.729 116.056 425.113 115.064 421.977 113.08C418.905 111.096 416.505 108.248 414.777 104.536C413.049 100.824 412.185 96.44 412.185 91.384C412.185 86.328 413.049 81.976 414.777 78.328C416.505 74.68 418.905 71.864 421.977 69.88C425.113 67.896 428.729 66.904 432.825 66.904C436.537 66.904 439.801 67.8 442.617 69.592C445.497 71.384 447.449 73.72 448.473 76.6H447.417V53.848C447.417 51.416 448.025 49.592 449.241 48.376C450.457 47.096 452.249 46.456 454.617 46.456C456.921 46.456 458.713 47.096 459.993 48.376C461.273 49.592 461.913 51.416 461.913 53.848V108.472C461.913 110.84 461.273 112.664 459.993 113.944C458.777 115.224 457.017 115.864 454.713 115.864C452.409 115.864 450.617 115.224 449.337 113.944C448.121 112.664 447.513 110.84 447.513 108.472V101.944L448.569 105.688C447.673 108.824 445.753 111.352 442.809 113.272C439.929 115.128 436.601 116.056 432.825 116.056ZM437.145 105.208C439.257 105.208 441.081 104.696 442.617 103.672C444.153 102.648 445.369 101.144 446.265 99.16C447.161 97.112 447.609 94.52 447.609 91.384C447.609 86.712 446.649 83.288 444.729 81.112C442.809 78.872 440.281 77.752 437.145 77.752C435.097 77.752 433.273 78.232 431.673 79.192C430.137 80.152 428.921 81.656 428.025 83.704C427.193 85.688 426.777 88.248 426.777 91.384C426.777 96.056 427.737 99.544 429.657 101.848C431.577 104.088 434.073 105.208 437.145 105.208ZM488.827 133.144C487.163 133.144 485.787 132.696 484.699 131.8C483.611 130.904 482.971 129.72 482.779 128.248C482.587 126.84 482.843 125.336 483.547 123.736L489.979 109.528V115.48L472.987 76.504C472.347 74.84 472.123 73.304 472.315 71.896C472.571 70.424 473.275 69.272 474.427 68.44C475.643 67.544 477.307 67.096 479.419 67.096C481.147 67.096 482.523 67.512 483.547 68.344C484.635 69.112 485.627 70.616 486.523 72.856L497.851 101.656H494.779L506.491 72.76C507.387 70.584 508.379 69.112 509.467 68.344C510.619 67.512 512.155 67.096 514.075 67.096C515.739 67.096 517.051 67.544 518.011 68.44C519.035 69.272 519.643 70.392 519.835 71.8C520.091 73.208 519.835 74.744 519.067 76.408L496.507 127.576C495.547 129.752 494.459 131.224 493.243 131.992C492.091 132.76 490.619 133.144 488.827 133.144ZM258.4 211C255.968 211 254.08 210.328 252.736 208.984C251.456 207.64 250.816 205.784 250.816 203.416V150.712C250.816 148.216 251.456 146.328 252.736 145.048C254.016 143.768 255.872 143.128 258.304 143.128C260.672 143.128 262.496 143.768 263.776 145.048C265.056 146.328 265.696 148.216 265.696 150.712V198.424H291.424C293.472 198.424 295.04 198.968 296.128 200.056C297.28 201.144 297.856 202.68 297.856 204.664C297.856 206.712 297.28 208.28 296.128 209.368C295.04 210.456 293.472 211 291.424 211H258.4ZM331.491 212.056C325.923 212.056 321.123 211.064 317.091 209.08C313.123 207.032 310.051 204.184 307.875 200.536C305.763 196.824 304.707 192.472 304.707 187.48C304.707 182.616 305.731 178.36 307.779 174.712C309.827 171 312.675 168.12 316.323 166.072C320.035 163.96 324.227 162.904 328.899 162.904C332.291 162.904 335.363 163.48 338.115 164.632C340.867 165.72 343.235 167.32 345.219 169.432C347.203 171.48 348.707 174.008 349.731 177.016C350.755 179.96 351.267 183.256 351.267 186.904C351.267 188.12 350.883 189.048 350.115 189.688C349.347 190.264 348.227 190.552 346.755 190.552H316.611V183.064H340.803L339.267 184.408C339.267 181.784 338.883 179.608 338.115 177.88C337.347 176.088 336.227 174.744 334.755 173.848C333.347 172.952 331.587 172.504 329.475 172.504C327.107 172.504 325.091 173.048 323.427 174.136C321.763 175.224 320.483 176.792 319.587 178.84C318.691 180.888 318.243 183.352 318.243 186.232V187C318.243 191.864 319.363 195.448 321.603 197.752C323.907 200.056 327.299 201.208 331.779 201.208C333.315 201.208 335.075 201.016 337.059 200.632C339.043 200.248 340.899 199.64 342.627 198.808C344.099 198.104 345.411 197.88 346.563 198.136C347.715 198.328 348.611 198.84 349.251 199.672C349.891 200.504 350.243 201.464 350.307 202.552C350.435 203.64 350.211 204.728 349.635 205.816C349.059 206.84 348.099 207.704 346.755 208.408C344.579 209.624 342.115 210.52 339.363 211.096C336.675 211.736 334.051 212.056 331.491 212.056ZM378.514 212.056C375.058 212.056 371.954 211.384 369.202 210.04C366.45 208.696 364.306 206.872 362.77 204.568C361.234 202.264 360.466 199.672 360.466 196.792C360.466 193.336 361.362 190.616 363.154 188.632C364.946 186.584 367.858 185.144 371.89 184.312C375.922 183.416 381.266 182.968 387.922 182.968H393.01V190.456H388.018C384.754 190.456 382.098 190.648 380.05 191.032C378.066 191.352 376.626 191.928 375.73 192.76C374.898 193.592 374.482 194.744 374.482 196.216C374.482 198.008 375.09 199.48 376.306 200.632C377.586 201.784 379.41 202.36 381.778 202.36C383.634 202.36 385.266 201.944 386.674 201.112C388.146 200.216 389.298 199.032 390.13 197.56C390.962 196.024 391.378 194.296 391.378 192.376V181.336C391.378 178.52 390.738 176.536 389.458 175.384C388.178 174.168 386.002 173.56 382.93 173.56C381.202 173.56 379.314 173.784 377.266 174.232C375.282 174.616 373.074 175.288 370.642 176.248C369.234 176.888 367.986 177.048 366.898 176.728C365.81 176.344 364.978 175.704 364.402 174.808C363.826 173.848 363.538 172.824 363.538 171.736C363.538 170.584 363.858 169.496 364.498 168.472C365.138 167.384 366.194 166.584 367.666 166.072C370.674 164.856 373.49 164.024 376.114 163.576C378.802 163.128 381.266 162.904 383.506 162.904C388.434 162.904 392.466 163.64 395.602 165.112C398.802 166.52 401.202 168.728 402.802 171.736C404.402 174.68 405.202 178.488 405.202 183.16V204.472C405.202 206.84 404.626 208.664 403.474 209.944C402.322 211.224 400.658 211.864 398.482 211.864C396.306 211.864 394.61 211.224 393.394 209.944C392.242 208.664 391.666 206.84 391.666 204.472V200.92L392.338 201.496C391.954 203.672 391.122 205.56 389.842 207.16C388.626 208.696 387.058 209.912 385.138 210.808C383.218 211.64 381.01 212.056 378.514 212.056ZM441.551 229.336C438.095 229.336 434.768 229.048 431.568 228.472C428.431 227.896 425.647 227.032 423.216 225.88C421.743 225.24 420.687 224.408 420.047 223.384C419.471 222.36 419.215 221.272 419.279 220.12C419.407 218.968 419.791 217.944 420.431 217.048C421.135 216.152 421.999 215.512 423.023 215.128C424.047 214.808 425.135 214.904 426.287 215.416C429.103 216.696 431.695 217.528 434.063 217.912C436.496 218.296 438.576 218.488 440.304 218.488C444.4 218.488 447.472 217.56 449.519 215.704C451.568 213.848 452.592 211 452.592 207.16V199.864H453.456C452.496 202.808 450.512 205.208 447.503 207.064C444.496 208.92 441.168 209.848 437.519 209.848C433.295 209.848 429.615 208.888 426.48 206.968C423.344 204.984 420.911 202.232 419.183 198.712C417.455 195.128 416.591 191 416.591 186.328C416.591 182.808 417.071 179.608 418.031 176.728C419.055 173.848 420.463 171.384 422.255 169.336C424.112 167.288 426.319 165.72 428.879 164.632C431.503 163.48 434.384 162.904 437.519 162.904C441.296 162.904 444.624 163.832 447.503 165.688C450.448 167.48 452.4 169.848 453.36 172.792L452.399 175.864V170.392C452.399 168.024 453.008 166.232 454.224 165.016C455.504 163.736 457.296 163.096 459.6 163.096C461.904 163.096 463.663 163.736 464.879 165.016C466.096 166.232 466.704 168.024 466.704 170.392V205.528C466.704 213.4 464.528 219.32 460.176 223.288C455.888 227.32 449.68 229.336 441.551 229.336ZM441.84 199C444.016 199 445.872 198.488 447.408 197.464C449.008 196.44 450.256 195 451.152 193.144C452.048 191.224 452.496 188.952 452.496 186.328C452.496 182.36 451.504 179.288 449.519 177.112C447.599 174.872 445.04 173.752 441.84 173.752C439.664 173.752 437.776 174.264 436.175 175.288C434.576 176.248 433.328 177.688 432.432 179.608C431.6 181.464 431.183 183.704 431.183 186.328C431.183 190.296 432.143 193.4 434.063 195.64C435.984 197.88 438.576 199 441.84 199ZM498.214 212.056C494.246 212.056 490.95 211.32 488.326 209.848C485.702 208.376 483.75 206.168 482.47 203.224C481.254 200.216 480.646 196.504 480.646 192.088V170.392C480.646 167.96 481.254 166.136 482.47 164.92C483.75 163.704 485.542 163.096 487.846 163.096C490.15 163.096 491.942 163.704 493.222 164.92C494.502 166.136 495.142 167.96 495.142 170.392V192.472C495.142 195.288 495.718 197.4 496.87 198.808C498.022 200.152 499.846 200.824 502.342 200.824C505.094 200.824 507.334 199.864 509.062 197.944C510.854 195.96 511.75 193.368 511.75 190.168V170.392C511.75 167.96 512.358 166.136 513.574 164.92C514.854 163.704 516.646 163.096 518.95 163.096C521.318 163.096 523.11 163.704 524.326 164.92C525.606 166.136 526.246 167.96 526.246 170.392V204.472C526.246 209.4 523.91 211.864 519.238 211.864C516.934 211.864 515.174 211.224 513.958 209.944C512.742 208.664 512.134 206.84 512.134 204.472V198.04L513.574 201.784C512.166 205.048 510.15 207.576 507.526 209.368C504.902 211.16 501.798 212.056 498.214 212.056ZM564.823 212.056C559.255 212.056 554.455 211.064 550.423 209.08C546.455 207.032 543.383 204.184 541.207 200.536C539.095 196.824 538.039 192.472 538.039 187.48C538.039 182.616 539.063 178.36 541.111 174.712C543.159 171 546.007 168.12 549.655 166.072C553.367 163.96 557.559 162.904 562.231 162.904C565.623 162.904 568.695 163.48 571.447 164.632C574.199 165.72 576.567 167.32 578.551 169.432C580.535 171.48 582.039 174.008 583.063 177.016C584.087 179.96 584.599 183.256 584.599 186.904C584.599 188.12 584.215 189.048 583.447 189.688C582.679 190.264 581.559 190.552 580.087 190.552H549.943V183.064H574.135L572.599 184.408C572.599 181.784 572.215 179.608 571.447 177.88C570.679 176.088 569.559 174.744 568.087 173.848C566.679 172.952 564.919 172.504 562.807 172.504C560.439 172.504 558.423 173.048 556.759 174.136C555.095 175.224 553.815 176.792 552.919 178.84C552.023 180.888 551.575 183.352 551.575 186.232V187C551.575 191.864 552.695 195.448 554.935 197.752C557.239 200.056 560.631 201.208 565.111 201.208C566.647 201.208 568.407 201.016 570.391 200.632C572.375 200.248 574.231 199.64 575.959 198.808C577.431 198.104 578.743 197.88 579.895 198.136C581.047 198.328 581.943 198.84 582.583 199.672C583.223 200.504 583.575 201.464 583.639 202.552C583.767 203.64 583.543 204.728 582.967 205.816C582.391 206.84 581.431 207.704 580.087 208.408C577.911 209.624 575.447 210.52 572.695 211.096C570.007 211.736 567.383 212.056 564.823 212.056Z" fill="#FF6900"/>
</svg>
